<?xml version="1.0" encoding="UTF-8" standalone="no"?>
<svg
   xmlns:dc="http://purl.org/dc/elements/1.1/"
   xmlns:cc="http://creativecommons.org/ns#"
   xmlns:rdf="http://www.w3.org/1999/02/22-rdf-syntax-ns#"
   xmlns:svg="http://www.w3.org/2000/svg"
   xmlns="http://www.w3.org/2000/svg"
   xmlns:xlink="http://www.w3.org/1999/xlink"
   id="svg8"
   version="1.1"
   viewBox="0 0 26.583702 27.56288"
   height="27.56288mm"
   width="26.583702mm">
  <defs
     id="defs2">
    <linearGradient
       id="Background">
      <stop
         id="stop4178"
         offset="0"
         style="stop-color:#22779e" />
      <stop
         id="stop4180"
         offset="1"
         style="stop-color:#2991c0" />
    </linearGradient>
    <filter
       style="color-interpolation-filters:sRGB"
       id="filter1121">
      <feFlood
         flood-opacity="0.59999999999999998"
         flood-color="rgb(0,0,0)"
         result="flood"
         id="feFlood1123" />
      <feComposite
         in="flood"
         in2="SourceGraphic"
         operator="out"
         result="composite1"
         id="feComposite1125" />
      <feGaussianBlur
         in="composite1"
         stdDeviation="1"
         result="blur"
         id="feGaussianBlur1127" />
      <feOffset
         dx="0"
         dy="2"
         result="offset"
         id="feOffset1129" />
      <feComposite
         in="offset"
         in2="SourceGraphic"
         operator="atop"
         result="composite2"
         id="feComposite1131" />
    </filter>
    <filter
       style="color-interpolation-filters:sRGB"
       id="filter950">
      <feFlood
         flood-opacity="0.25"
         flood-color="rgb(0,0,0)"
         result="flood"
         id="feFlood952" />
      <feComposite
         in="flood"
         in2="SourceGraphic"
         operator="in"
         result="composite1"
         id="feComposite954" />
      <feGaussianBlur
         in="composite1"
         stdDeviation="1"
         result="blur"
         id="feGaussianBlur956" />
      <feOffset
         dx="0"
         dy="1"
         result="offset"
         id="feOffset958" />
      <feComposite
         in="SourceGraphic"
         in2="offset"
         operator="over"
         result="composite2"
         id="feComposite960" />
    </filter>
    <clipPath
       clipPathUnits="userSpaceOnUse"
       id="clipPath873">
      <g
         transform="matrix(0,-0.66666667,0.66604479,0,-258.25992,677.00001)"
         id="g875"
         style="fill:#ff00ff">
        <path
           d="M 46.702703,898.22775 H 97.297297 C 138.16216,898.22775 144,904.06497 144,944.92583 v 50.73846 c 0,40.86071 -5.83784,46.69791 -46.702703,46.69791 H 46.702703 C 5.8378378,1042.3622 0,1036.525 0,995.66429 v -50.73846 c 0,-40.86086 5.8378378,-46.69808 46.702703,-46.69808 z"
           id="path877" />
      </g>
    </clipPath>
    <style
       id="style867"
       type="text/css"><![CDATA[
    .fil0 {fill:#1F1A17}
   ]]></style>
    <clipPath
       id="clipPath16">
      <path
         id="path18"
         d="M -9,-9 H 605 V 222 H -9 Z" />
    </clipPath>
    <clipPath
       id="clipPath116">
      <path
         id="path118"
         d="m 91.7368,146.3253 -9.7039,-1.577 -8.8548,-3.8814 -7.5206,-4.7308 -7.1566,-8.7335 -4.0431,-4.282 -3.9093,-1.4409 -1.034,2.5271 1.8079,2.6096 0.4062,3.6802 1.211,-0.0488 1.3232,-1.2069 -0.3569,3.7488 -1.4667,0.9839 0.0445,1.4286 -3.4744,-1.9655 -3.1462,-3.712 -0.6559,-3.3176 1.3453,-2.6567 1.2549,-4.5133 2.5521,-1.2084 2.6847,0.1318 2.5455,1.4791 -1.698,-8.6122 1.698,-9.5825 -1.8692,-4.4246 -6.1223,-6.5965 1.0885,-3.941 2.9002,-4.5669 5.4688,-3.8486 2.9007,-0.3969 3.225,-0.1094 -2.012,-8.2601 7.3993,-3.0326 9.2188,-1.2129 3.1535,2.0619 0.2427,5.5797 3.5178,5.8224 0.2426,4.6094 8.4909,-0.6066 7.8843,0.7279 -7.8843,-4.7307 1.3343,-5.701 4.9731,-7.763 4.8521,-2.0622 3.8814,1.5769 1.577,3.1538 8.1269,6.1861 1.5769,-1.3343 12.7363,-0.485 2.5473,2.0619 0.2426,3.6391 -0.849,1.5767 -0.6066,9.8251 -4.2454,8.4909 0.7276,3.7605 2.5475,-1.3343 7.1566,-6.6716 3.5175,-0.2424 3.8815,1.5769 3.8818,2.9109 1.9406,6.3077 11.4021,-0.7277 6.914,2.6686 5.5797,5.2157 4.0028,7.5206 0.9706,8.8546 -0.8493,10.3105 -2.1832,9.2185 -2.1836,2.9112 -3.0322,0.9706 -5.3373,-5.8224 -4.8518,-1.6982 -4.2455,7.0353 -4.2454,3.8815 -2.3049,1.4556 -9.2185,7.6419 -7.3993,4.0028 -7.3993,0.6066 -8.6119,-1.4556 -7.5206,-2.7899 -5.2158,-4.2454 -4.1241,-4.9734 -4.2454,-1.2129" />
    </clipPath>
    <clipPath
       id="clipPath128">
      <path
         id="path130"
         d="m 91.7368,146.3253 -9.7039,-1.577 -8.8548,-3.8814 -7.5206,-4.7308 -7.1566,-8.7335 -4.0431,-4.282 -3.9093,-1.4409 -1.034,2.5271 1.8079,2.6096 0.4062,3.6802 1.211,-0.0488 1.3232,-1.2069 -0.3569,3.7488 -1.4667,0.9839 0.0445,1.4286 -3.4744,-1.9655 -3.1462,-3.712 -0.6559,-3.3176 1.3453,-2.6567 1.2549,-4.5133 2.5521,-1.2084 2.6847,0.1318 2.5455,1.4791 -1.698,-8.6122 1.698,-9.5825 -1.8692,-4.4246 -6.1223,-6.5965 1.0885,-3.941 2.9002,-4.5669 5.4688,-3.8486 2.9007,-0.3969 3.225,-0.1094 -2.012,-8.2601 7.3993,-3.0326 9.2188,-1.2129 3.1535,2.0619 0.2427,5.5797 3.5178,5.8224 0.2426,4.6094 8.4909,-0.6066 7.8843,0.7279 -7.8843,-4.7307 1.3343,-5.701 4.9731,-7.763 4.8521,-2.0622 3.8814,1.5769 1.577,3.1538 8.1269,6.1861 1.5769,-1.3343 12.7363,-0.485 2.5473,2.0619 0.2426,3.6391 -0.849,1.5767 -0.6066,9.8251 -4.2454,8.4909 0.7276,3.7605 2.5475,-1.3343 7.1566,-6.6716 3.5175,-0.2424 3.8815,1.5769 3.8818,2.9109 1.9406,6.3077 11.4021,-0.7277 6.914,2.6686 5.5797,5.2157 4.0028,7.5206 0.9706,8.8546 -0.8493,10.3105 -2.1832,9.2185 -2.1836,2.9112 -3.0322,0.9706 -5.3373,-5.8224 -4.8518,-1.6982 -4.2455,7.0353 -4.2454,3.8815 -2.3049,1.4556 -9.2185,7.6419 -7.3993,4.0028 -7.3993,0.6066 -8.6119,-1.4556 -7.5206,-2.7899 -5.2158,-4.2454 -4.1241,-4.9734 -4.2454,-1.2129" />
    </clipPath>
    <linearGradient
       id="linearGradient3850">
      <stop
         id="stop3852"
         offset="0"
         style="stop-color:#000000" />
      <stop
         id="stop3854"
         offset="1"
         style="stop-color:#000000;stop-opacity:0" />
    </linearGradient>
    <clipPath
       clipPathUnits="userSpaceOnUse"
       id="clipPath3095">
      <path
         d="M 976.648,389.551 H 134.246 V 1229.55 H 976.648 V 389.551"
         id="path3097" />
    </clipPath>
    <clipPath
       clipPathUnits="userSpaceOnUse"
       id="clipPath3195">
      <path
         d="m 611.836,756.738 -106.34,105.207 c -8.473,8.289 -13.617,20.102 -13.598,33.379 L 598.301,790.207 c -0.031,-13.418 5.094,-25.031 13.535,-33.469"
         id="path3197" />
    </clipPath>
    <clipPath
       clipPathUnits="userSpaceOnUse"
       id="clipPath3235">
      <path
         d="m 1095.64,1501.81 c 35.46,-35.07 70.89,-70.11 106.35,-105.17 4.4,-4.38 7.11,-10.53 7.11,-17.55 l -106.37,105.21 c 0,7 -2.71,13.11 -7.09,17.51"
         id="path3237" />
    </clipPath>
    <clipPath
       id="clipPath4591"
       clipPathUnits="userSpaceOnUse">
      <path
         d="m 1106.6009,730.43734 -0.036,21.648 c -0.01,3.50825 -2.8675,6.61375 -6.4037,6.92525 l -83.6503,7.33162 c -3.5205,0.30763 -6.3812,-2.29987 -6.3671,-5.8145 l 0.036,-21.6475 20.1171,-1.76662 -0.011,4.63775 c 0,1.83937 1.4844,3.19925 3.3262,3.0395 l 49.5274,-4.33975 c 1.8425,-0.166 3.3425,-1.78125 3.3538,-3.626 l 0.01,-4.63025 20.1,-1.7575"
         style="fill:#ff00ff"
         id="path4593" />
    </clipPath>
    <radialGradient
       gradientUnits="userSpaceOnUse"
       gradientTransform="matrix(-1.4333926,-2.2742838,1.1731823,-0.73941125,-174.08025,98.374394)"
       r="20.40658"
       fy="93.399292"
       fx="-26.508606"
       cy="93.399292"
       cx="-26.508606"
       id="radialGradient3856"
       xlink:href="#linearGradient3850" />
    <linearGradient
       gradientTransform="translate(-318.48033,212.32022)"
       gradientUnits="userSpaceOnUse"
       y2="993.19702"
       x2="-51.879555"
       y1="593.11615"
       x1="348.20132"
       id="linearGradient3895"
       xlink:href="#linearGradient3850" />
    <clipPath
       id="clipPath3906"
       clipPathUnits="userSpaceOnUse">
      <rect
         transform="scale(1,-1)"
         style="color:#000000;opacity:0.8;fill:#ff00ff;stroke-width:4"
         id="rect3908"
         width="1019.1371"
         height="1019.1371"
         x="357.9816"
         y="-1725.8152" />
    </clipPath>
  </defs>
  <metadata
     id="metadata5">
    <rdf:RDF>
      <cc:Work
         rdf:about="">
        <dc:format>image/svg+xml</dc:format>
        <dc:type
           rdf:resource="http://purl.org/dc/dcmitype/StillImage" />
        <dc:title></dc:title>
      </cc:Work>
    </rdf:RDF>
  </metadata>
  <g
     transform="translate(-0.45654756,-87.483666)"
     id="layer1">
    <g
       id="layer1-6"
       transform="matrix(0.26458333,0,0,0.26458333,71.36488,-80.603679)">
      <path
         style="fill:#ed1843"
         d="M 48,0 A 48,48 0 0 0 0,48 48,48 0 0 0 48,96 48,48 0 0 0 96,48 48,48 0 0 0 48,0 Z"
         transform="translate(-268,635.29076)"
         id="path6455" />
      <path
         style="fill:#ffffff;stroke-width:0.13333333"
         d="M 25.203125,20 C 22.340895,20 20,22.341395 20,25.203125 V 32 36 H 76 V 32 25.203125 C 76,22.341395 73.658635,20 70.796875,20 Z M 20,40 v 2 12 2 H 76 V 54 42 40 Z m 0,20 v 4 6.796875 C 20,73.658605 22.341375,76 25.203125,76 h 45.59375 C 73.659105,76 76,73.658605 76,70.796875 V 64 60 Z"
         transform="translate(-268,635.29076)"
         id="path38" />
    </g>
    <g
       id="g4649"
       transform="matrix(0.46222352,0,0,0.52021416,-49.748865,3.96016)">
      <path
         id="path4638"
         d="m 146.91074,213.49183 c -2.20346,-0.19069 -4.37038,-0.97206 -6.32901,-2.28217 -0.42692,-0.28556 -0.9831,-0.70828 -1.23597,-0.93939 -0.25287,-0.23111 -0.48729,-0.4202 -0.52094,-0.4202 -0.0336,0 -0.64383,0.51435 -1.35594,1.143 -1.22228,1.07901 -1.48631,1.25384 -1.6046,1.06244 -0.0274,-0.0443 0.33232,-0.84404 0.79933,-1.77719 0.46702,-0.93315 0.84913,-1.73719 0.84913,-1.78676 0,-0.0496 -0.28957,-0.52864 -0.64349,-1.06461 -0.7253,-1.09839 -1.43638,-2.53724 -1.75317,-3.5475 -0.39172,-1.24922 -0.49721,-1.90031 -0.5416,-3.34271 -0.0358,-1.16451 -0.014,-1.56608 0.13145,-2.413 0.21234,-1.23669 0.56603,-2.3345 1.13201,-3.51367 l 0.42671,-0.889 0.002,-1.18533 c 0.003,-1.83876 -0.30899,-3.01314 -1.04457,-3.92598 -0.2304,-0.28593 -0.41891,-0.5751 -0.41891,-0.64261 0,-0.19257 0.47709,-0.23872 1.97094,-0.19066 1.49518,0.0481 2.15207,0.16273 3.50287,0.61125 1.35585,0.45019 2.62048,1.131 3.73613,2.01133 0.33651,0.26553 0.58509,0.40313 0.67733,0.37493 0.0802,-0.0245 0.61214,-0.23578 1.1822,-0.4695 1.76084,-0.72193 4.02233,-1.4321 6.22352,-1.95436 2.26015,-0.53625 5.87761,-1.11526 6.19849,-0.99213 0.18238,0.07 0.15002,0.35273 -0.20842,1.82057 -0.43865,1.79634 -1.57816,4.81716 -1.91002,5.06341 -0.0723,0.0537 -0.57697,0.18095 -1.12144,0.28286 -1.69045,0.31639 -3.52442,0.68648 -3.55542,0.71749 -0.0436,0.0435 0.14713,0.0946 1.55831,0.41702 1.89391,0.43275 1.98084,0.46037 1.98084,0.62923 0,0.0814 -0.40294,0.69261 -0.89543,1.35826 -0.49903,0.6745 -0.87564,1.26183 -0.85073,1.32674 0.0246,0.0641 0.32275,0.20385 0.66259,0.31064 0.56576,0.17779 0.75366,0.19252 2.22657,0.1746 0.88477,-0.0108 1.75781,-0.0298 1.9401,-0.0423 0.32754,-0.0225 0.33582,-0.0155 0.70468,0.59107 0.20529,0.33761 0.42434,0.61384 0.48678,0.61384 0.0624,0 0.25641,-0.25718 0.43103,-0.5715 0.17463,-0.31433 0.35549,-0.59659 0.40192,-0.62726 0.0464,-0.0307 0.3926,-0.0992 0.76928,-0.15223 1.78139,-0.25097 3.28365,-1.01128 4.43948,-2.24686 0.69692,-0.745 0.77506,-0.71227 0.77506,0.32467 0,1.87024 -0.81164,3.69898 -2.23097,5.0267 -0.73599,0.68848 -1.16521,0.97453 -2.21417,1.47561 -0.80865,0.38628 -0.88623,0.44448 -0.97718,0.73306 -0.17278,0.54819 -1.0679,2.32374 -1.48123,2.93814 -1.29056,1.91839 -2.89644,3.36882 -4.94978,4.47065 -2.20198,1.1816 -4.83809,1.71821 -7.366,1.49944 z m 7.79867,-5.6769 c 0.975,-0.32846 1.76939,-1.00261 2.24918,-1.90874 0.27998,-0.52878 0.5599,-1.36678 0.49281,-1.47534 -0.0219,-0.0354 -0.25934,-0.0905 -0.52771,-0.12257 -1.74329,-0.2081 -3.39968,-1.11059 -4.86314,-2.6497 -0.73744,-0.77555 -0.63644,-0.78423 -1.23101,0.10583 -1.00157,1.4993 -1.36778,3.0244 -0.99144,4.12888 0.26092,0.76576 1.13378,1.53661 2.14362,1.89309 0.75557,0.26672 1.98256,0.27957 2.72769,0.0285 z m 5.19766,-18.18583 c -0.43263,-0.20513 -0.635,-0.55583 -0.635,-1.10043 0,-0.47175 0.23722,-0.84534 0.68322,-1.07597 0.98141,-0.50751 2.07153,0.57174 1.61651,1.60039 -0.092,0.20792 -0.26659,0.44314 -0.38803,0.52271 -0.33431,0.21905 -0.87916,0.2418 -1.2767,0.0533 z m 0.80434,-0.35303 c 0.10984,-0.071 0.10793,-0.0823 -0.0141,-0.0834 -0.0776,-7.1e-4 -0.15687,-0.0486 -0.17613,-0.10637 -0.0257,-0.077 -0.0717,-0.0684 -0.17236,0.0323 -0.21819,0.21819 0.073,0.34466 0.36261,0.15749 z m 0.508,-0.73112 c 0,-0.3645 -0.29832,-0.69602 -0.67734,-0.75272 -0.27489,-0.0411 -0.28102,-0.0374 -0.0847,0.0511 0.45002,0.2028 0.46558,0.22238 0.47406,0.59664 0.005,0.20376 0.0154,0.44667 0.0239,0.5398 0.0153,0.16713 0.0171,0.16719 0.13977,0.005 0.0684,-0.0904 0.12431,-0.28829 0.12431,-0.43977 z m -1.27,-0.0309 c 0,-0.2794 -0.02,-0.508 -0.0444,-0.508 -0.10528,0 -0.2165,0.4869 -0.16902,0.73996 0.085,0.45291 0.21345,0.31329 0.21345,-0.23196 z"
         style="fill:#d0d0d0;stroke-width:0.08466667" />
      <path
         id="path4636"
         d="m 146.31807,213.36312 c -1.32304,-0.18121 -3.01832,-0.70015 -4.15149,-1.2708 -0.77507,-0.39033 -2.25829,-1.3926 -2.81845,-1.90455 -0.25417,-0.2323 -0.48966,-0.42236 -0.52331,-0.42236 -0.0336,0 -0.64383,0.51435 -1.35594,1.143 -1.11651,0.98564 -1.56481,1.2988 -1.56481,1.09312 0,-0.0274 0.381,-0.81071 0.84667,-1.7406 0.46567,-0.9299 0.84667,-1.72837 0.84667,-1.77438 0,-0.046 -0.29929,-0.536 -0.66508,-1.08885 -2.78411,-4.20781 -3.09819,-8.4017 -0.96961,-12.94708 l 0.3813,-0.81421 -0.0435,-1.397 c -0.0275,-0.88398 -0.0934,-1.58356 -0.17947,-1.905 -0.1828,-0.68269 -0.56299,-1.44554 -0.93989,-1.88582 -0.17035,-0.199 -0.29031,-0.41244 -0.26657,-0.4743 0.0854,-0.22254 1.38128,-0.28659 2.7251,-0.13469 2.18415,0.24688 4.40743,1.14903 6.20691,2.51858 l 0.70358,0.53549 1.15909,-0.46103 c 2.74861,-1.09325 5.66585,-1.93493 8.69442,-2.50851 1.37582,-0.26057 3.69494,-0.58549 3.82437,-0.53583 0.16107,0.0618 0.14109,0.32901 -0.10162,1.3593 -0.52607,2.23319 -1.69117,5.33343 -2.06168,5.48598 -0.0754,0.031 -1.19982,0.26091 -2.49873,0.51084 -1.29891,0.24992 -2.37803,0.47079 -2.39806,0.49082 -0.02,0.02 0.49027,0.15807 1.13399,0.30678 2.16031,0.49906 2.60655,0.62815 2.63204,0.76143 0.0134,0.0699 -0.37671,0.67453 -0.86684,1.34369 -0.49012,0.66916 -0.89114,1.24939 -0.89114,1.2894 0,0.11255 0.58444,0.37978 1.10067,0.50328 0.53452,0.12787 2.42888,0.15679 3.43348,0.0524 l 0.68182,-0.0708 0.38295,0.62117 c 0.21063,0.34164 0.44534,0.63322 0.52158,0.64795 0.0937,0.0181 0.21515,-0.11778 0.37456,-0.41889 0.39075,-0.73807 0.57733,-0.88382 1.21009,-0.9453 1.62043,-0.15745 3.33594,-1.01292 4.51401,-2.251 0.27106,-0.28486 0.52416,-0.51792 0.56245,-0.51792 0.20993,0 0.22439,0.67716 0.0381,1.78424 -0.41191,2.44783 -1.96848,4.37587 -4.47021,5.537 l -0.79589,0.3694 -0.14701,0.45151 c -0.23976,0.73637 -1.10142,2.35916 -1.68814,3.17933 -2.86916,4.01077 -7.7607,6.14383 -12.57645,5.48423 z m 8.16738,-5.42083 c 0.70548,-0.18376 1.27983,-0.51682 1.82232,-1.05678 0.54996,-0.54739 1.0828,-1.55033 1.15714,-2.17808 l 0.0496,-0.41914 -0.59288,-0.0551 c -1.65178,-0.15352 -3.32706,-1.06079 -4.79407,-2.59629 -0.38454,-0.4025 -0.706,-0.67148 -0.77213,-0.6461 -0.16509,0.0633 -0.72784,0.92137 -1.13277,1.72712 -0.67054,1.3343 -0.78192,2.60258 -0.30544,3.47805 0.7885,1.44872 2.78319,2.21125 4.56819,1.74632 z m 5.40363,-18.38085 c -0.36741,-0.18116 -0.65584,-0.7715 -0.57846,-1.18398 0.031,-0.16521 0.18024,-0.43556 0.33166,-0.60078 0.22844,-0.24927 0.34646,-0.30664 0.69338,-0.33705 0.96331,-0.0844 1.57579,0.77891 1.16569,1.64314 -0.26775,0.56425 -0.99863,0.78124 -1.61227,0.47867 z m 1.1958,-0.4612 c 0.14025,-0.16668 0.21919,-0.36253 0.21919,-0.54383 0,-0.1813 -0.0789,-0.37716 -0.21919,-0.54384 -0.18438,-0.21913 -0.27912,-0.2605 -0.59652,-0.2605 -0.5272,0 -0.79295,0.26957 -0.79295,0.80434 0,0.53477 0.26575,0.80433 0.79295,0.80433 0.3174,0 0.41214,-0.0414 0.59652,-0.2605 z m -1.10186,-0.20976 c -0.0721,-0.28729 0.0177,-0.81102 0.15389,-0.89743 0.31796,-0.20174 0.91405,0.12191 0.77673,0.42174 -0.0357,0.0779 -0.0604,0.26544 -0.0549,0.41678 0.0109,0.30108 -0.13566,0.36627 -0.32111,0.14282 -0.0996,-0.12002 -0.11674,-0.12002 -0.18391,0 -0.11319,0.20228 -0.31006,0.15771 -0.3707,-0.0839 z m 0.55905,-0.54574 c 0,-0.0466 -0.0381,-0.0847 -0.0847,-0.0847 -0.0466,0 -0.0847,0.0381 -0.0847,0.0847 0,0.0466 0.0381,0.0847 0.0847,0.0847 0.0466,0 0.0847,-0.0381 0.0847,-0.0847 z"
         style="fill:#aeaeae;stroke-width:0.08466667" />
      <path
         id="path4634"
         d="m 146.61441,213.34761 c -0.92519,-0.12056 -1.84386,-0.31517 -2.55893,-0.54209 -1.60299,-0.50869 -3.5036,-1.57721 -4.58304,-2.57658 -0.27537,-0.25494 -0.56228,-0.46353 -0.63758,-0.46353 -0.0753,0 -0.7102,0.50482 -1.41088,1.12183 -0.70068,0.61701 -1.31025,1.13453 -1.3546,1.15006 -0.1659,0.0581 -0.0596,-0.19959 0.76625,-1.85736 0.46579,-0.93499 0.82155,-1.74413 0.79057,-1.79809 -0.031,-0.054 -0.25392,-0.38386 -0.49544,-0.73311 -2.01087,-2.90785 -2.82331,-6.05509 -2.37139,-9.18633 0.21165,-1.46642 0.52996,-2.48296 1.27259,-4.064 l 0.39769,-0.84667 -0.0483,-1.27 c -0.0703,-1.84838 -0.37351,-2.86371 -1.14462,-3.83263 -0.31391,-0.39444 -0.33743,-0.45312 -0.20362,-0.508 0.31052,-0.12733 2.8327,-0.0589 3.57826,0.0971 2.04152,0.42713 3.81803,1.23422 5.26801,2.39333 0.31184,0.24928 0.61922,0.45324 0.68307,0.45324 0.0639,0 0.58667,-0.19029 1.16182,-0.42288 2.62846,-1.06291 5.64034,-1.92247 8.72179,-2.48909 1.72786,-0.31772 3.73674,-0.58183 3.81678,-0.50179 0.17186,0.17187 -0.60333,3.12396 -1.25214,4.76843 -0.5559,1.40895 -0.83707,1.9358 -1.06227,1.99046 -0.10452,0.0254 -1.22994,0.2459 -2.50094,0.49008 -1.271,0.24418 -2.30565,0.48128 -2.29922,0.52688 0.006,0.0456 0.81774,0.26763 1.80291,0.4934 0.98517,0.22577 1.84181,0.45869 1.90364,0.51762 0.0925,0.0881 -0.0467,0.32239 -0.78316,1.31859 -0.49258,0.6663 -0.8956,1.27641 -0.8956,1.35579 0,0.1642 0.54088,0.4186 1.27,0.59733 0.54547,0.13372 2.58962,0.14381 3.32428,0.0164 0.57901,-0.1004 0.60047,-0.0878 1.03699,0.60977 0.49886,0.79716 0.55641,0.79438 1.0188,-0.0491 0.21009,-0.38326 0.38504,-0.60205 0.49862,-0.62357 0.0962,-0.0182 0.45858,-0.0791 0.8052,-0.13534 1.62934,-0.26417 3.34463,-1.16513 4.35258,-2.28622 0.20739,-0.23066 0.41887,-0.41939 0.46997,-0.41939 0.14756,0 0.10951,1.13641 -0.0666,1.98984 -0.31039,1.50381 -0.90573,2.5492 -2.1029,3.69254 -0.71313,0.68107 -1.45136,1.16452 -2.44969,1.60424 -0.60352,0.26583 -0.60649,0.26877 -0.79428,0.78694 -0.56318,1.55398 -1.61379,3.23731 -2.80813,4.49929 -2.64655,2.79645 -5.96264,4.21535 -9.7618,4.17692 -0.60536,-0.006 -1.21496,-0.026 -1.35466,-0.0442 z m 7.59466,-5.28657 c 1.10404,-0.23548 1.99423,-0.82774 2.59857,-1.72889 0.46279,-0.69007 0.84849,-1.75891 0.71265,-1.97487 -0.06,-0.0954 -0.27788,-0.15689 -0.71076,-0.20067 -1.65157,-0.16703 -3.02433,-0.91576 -4.60672,-2.51264 -0.41888,-0.42271 -0.78678,-0.76856 -0.81756,-0.76856 -0.11556,0 -0.71718,0.91903 -1.13939,1.74051 -0.51014,0.99257 -0.75876,1.94546 -0.68034,2.60757 0.11914,1.00595 0.8172,1.91087 1.87624,2.43223 0.97443,0.47971 1.8306,0.60511 2.76731,0.40532 z m 5.95553,-18.42339 c -0.68657,-0.1744 -1.02789,-1.02131 -0.66154,-1.64148 0.14153,-0.2396 0.71179,-0.5847 0.95991,-0.5809 0.28469,0.004 0.8369,0.3371 0.96249,0.57995 0.4633,0.89592 -0.29761,1.88711 -1.26086,1.64243 z m 0.82559,-0.3629 c 0.32354,-0.25449 0.43701,-0.67406 0.28239,-1.04413 -0.29096,-0.69636 -1.22799,-0.74536 -1.56726,-0.0819 -0.41451,0.81053 0.57904,1.68128 1.28487,1.12608 z m -0.911,-0.26343 c -0.0304,-0.0758 -0.0434,-0.32342 -0.029,-0.55034 0.0258,-0.40657 0.0306,-0.41294 0.32981,-0.43802 0.38077,-0.0319 0.54632,0.13873 0.45482,0.46885 -0.0357,0.12866 -0.0553,0.32918 -0.0436,0.4456 l 0.0212,0.21166 -0.20746,-0.19361 -0.20745,-0.19362 -0.13155,0.19362 c -0.11287,0.16613 -0.13939,0.17406 -0.18679,0.0559 z m 0.52638,-0.68775 c -0.0194,-0.0582 -0.0861,-0.10583 -0.14816,-0.10583 -0.0621,0 -0.12877,0.0476 -0.14817,0.10583 -0.021,0.063 0.039,0.10584 0.14817,0.10584 0.10912,0 0.16915,-0.0429 0.14816,-0.10584 z"
         style="fill:#909090;stroke-width:0.08466667" />
      <path
         id="path4632"
         d="m 146.29753,213.27617 c -1.42733,-0.19459 -2.91869,-0.65617 -4.18437,-1.29508 -0.715,-0.36094 -2.17744,-1.35499 -2.75132,-1.87015 -0.26358,-0.23661 -0.506,-0.4302 -0.53872,-0.4302 -0.0327,0 -0.64213,0.51435 -1.35424,1.143 -0.71212,0.62865 -1.31742,1.143 -1.34512,1.143 -0.13179,0 0.009,-0.34637 0.75398,-1.85384 0.44238,-0.89527 0.80433,-1.64627 0.80433,-1.66889 0,-0.0226 -0.30822,-0.50608 -0.68494,-1.07437 -1.6232,-2.4486 -2.31171,-4.60888 -2.31268,-7.25623 -6.8e-4,-1.95371 0.39846,-3.64107 1.32196,-5.588 l 0.42168,-0.889 -0.043,-1.35467 c -0.0614,-1.93548 -0.35756,-2.94327 -1.13022,-3.84594 -0.15519,-0.18131 -0.28216,-0.36603 -0.28216,-0.41051 0,-0.19109 1.52501,-0.24692 2.71155,-0.0993 2.2628,0.28157 4.57244,1.24106 6.30388,2.61881 l 0.54208,0.43135 1.38074,-0.54565 c 3.34415,-1.32156 6.81013,-2.22015 10.77764,-2.79422 0.79102,-0.11446 1.46729,-0.19013 1.50283,-0.16817 0.11585,0.0716 0.0692,0.40105 -0.22648,1.60072 -0.45072,1.82848 -1.46408,4.59356 -1.82324,4.97492 -0.10714,0.11377 -0.76562,0.27287 -2.54989,0.61611 -1.32299,0.25451 -2.45944,0.48202 -2.52544,0.50558 -0.24107,0.0861 0.0631,0.18864 1.60166,0.54023 2.14799,0.49083 2.20134,0.50592 2.20134,0.62251 0,0.0566 -0.40005,0.64964 -0.889,1.31785 -0.48895,0.66821 -0.889,1.24691 -0.889,1.28601 0,0.13025 0.37518,0.33787 0.9105,0.50386 0.73717,0.22858 2.06453,0.29845 3.28311,0.17281 l 1.00984,-0.10411 0.15794,0.19856 c 0.0869,0.10921 0.27872,0.38906 0.42632,0.62189 0.35851,0.56555 0.52613,0.55739 0.86957,-0.0423 0.3986,-0.69604 0.56534,-0.84657 0.93852,-0.84726 0.53492,-9.9e-4 1.70035,-0.32188 2.45726,-0.67658 0.872,-0.40863 1.59457,-0.91953 2.25933,-1.59748 0.27576,-0.28124 0.53294,-0.49185 0.5715,-0.46802 0.20177,0.1247 -0.0643,2.07622 -0.40859,2.99667 -0.32385,0.86584 -0.84884,1.67171 -1.54572,2.37272 -0.78164,0.78626 -1.20913,1.08731 -2.40164,1.69128 l -0.91943,0.46567 -0.35867,0.889 c -1.54226,3.82266 -4.91672,6.81617 -8.8299,7.83306 -1.71437,0.44551 -3.53986,0.56258 -5.21382,0.33437 z m 8.13745,-5.24243 c 1.40136,-0.37298 2.40407,-1.30235 2.93929,-2.7243 0.11725,-0.31151 0.2017,-0.68413 0.18766,-0.82804 -0.0234,-0.2401 -0.0534,-0.26352 -0.36419,-0.28423 -1.19028,-0.0793 -2.77164,-0.70951 -3.8652,-1.54029 -0.30976,-0.23532 -0.85332,-0.73626 -1.20791,-1.11319 -0.40946,-0.43526 -0.68914,-0.66827 -0.76648,-0.63859 -0.36811,0.14126 -1.46538,2.13626 -1.7059,3.10158 -0.17288,0.69387 -0.12139,1.5023 0.13324,2.0919 0.35275,0.81682 1.41194,1.63955 2.48165,1.92764 0.57935,0.15602 1.59663,0.15955 2.16784,0.008 z m 5.42111,-18.61226 c -0.40529,-0.27226 -0.57426,-0.77095 -0.40866,-1.20607 0.0666,-0.17498 0.21721,-0.38991 0.33469,-0.47762 0.54695,-0.40836 1.40655,-0.22834 1.63535,0.34248 0.0676,0.16874 0.10162,0.34189 0.0755,0.38478 -0.0261,0.0429 -0.0815,-0.0143 -0.12305,-0.127 -0.0416,-0.11274 -0.17577,-0.30975 -0.29823,-0.43781 -0.18012,-0.18836 -0.29747,-0.23283 -0.6143,-0.23283 -0.55424,0 -0.84667,0.30705 -0.84667,0.889 0,0.334 0.044,0.45998 0.22751,0.65153 0.45157,0.47134 1.3561,0.23846 1.51376,-0.38973 0.0301,-0.12007 0.0865,-0.19867 0.12537,-0.17468 0.12279,0.0759 -0.0947,0.5379 -0.35714,0.75876 -0.33377,0.28084 -0.86269,0.28888 -1.26415,0.0192 z m 0.23916,-0.45112 c -0.11424,-0.11424 -0.0651,-0.77096 0.0658,-0.87962 0.0699,-0.058 0.13105,-0.0722 0.136,-0.0315 0.005,0.0406 0.0145,0.15006 0.0212,0.2432 0.0171,0.2386 0.26789,0.21814 0.25944,-0.0212 -0.008,-0.21896 0.0689,-0.24364 0.2139,-0.0689 0.077,0.0927 0.0776,0.16511 0.003,0.30499 -0.054,0.10087 -0.0792,0.2557 -0.0561,0.34408 0.0495,0.18941 -0.0945,0.21872 -0.16551,0.0337 -0.0629,-0.16392 -0.19808,-0.16192 -0.31995,0.005 -0.053,0.0725 -0.12385,0.1042 -0.1575,0.0705 z"
         style="fill:#6f6f6f;stroke-width:0.08466667" />
      <path
         id="path4630"
         d="m 147.24941,213.31915 c -1.279,-0.0678 -2.1736,-0.24575 -3.45351,-0.68708 -1.63364,-0.56331 -3.17361,-1.44939 -4.30681,-2.47809 -0.28672,-0.26028 -0.58574,-0.47324 -0.66447,-0.47324 -0.11806,0 -0.81526,0.58032 -2.47571,2.06068 -0.10459,0.0932 -0.21035,0.14936 -0.23502,0.1247 -0.0247,-0.0247 0.31809,-0.77553 0.76167,-1.66859 0.44358,-0.89306 0.80651,-1.6779 0.80651,-1.74408 0,-0.0662 -0.28948,-0.55054 -0.64328,-1.07635 -1.56933,-2.33227 -2.315,-4.63785 -2.31857,-7.16892 -0.003,-1.90594 0.45375,-3.87785 1.29391,-5.58991 l 0.44028,-0.8972 -0.007,-1.22766 c -0.011,-1.87881 -0.33633,-3.05237 -1.11871,-4.03531 -0.2771,-0.34813 -0.32139,-0.4471 -0.21786,-0.48683 0.2632,-0.101 2.39987,-0.0464 3.13183,0.08 2.12386,0.36683 4.12873,1.24148 5.63458,2.45814 0.31312,0.25299 0.62534,0.45999 0.69381,0.45999 0.0685,0 0.30863,-0.0798 0.53368,-0.17724 3.16669,-1.37163 7.5936,-2.56607 11.56337,-3.11995 1.68909,-0.23566 1.60786,-0.24322 1.5405,0.14335 -0.14369,0.82456 -0.48133,2.11541 -0.82503,3.15418 -0.40445,1.22237 -1.10962,2.94237 -1.27216,3.10295 -0.0544,0.0537 -1.22167,0.31166 -2.59404,0.57328 -2.34286,0.44661 -2.753,0.55363 -2.56558,0.66947 0.042,0.0259 0.91083,0.24045 1.93081,0.47672 1.01998,0.23626 1.88705,0.4621 1.92683,0.50188 0.04,0.04 -0.32792,0.61372 -0.82276,1.28308 -0.4923,0.66592 -0.89508,1.27963 -0.89508,1.3638 0,0.21766 0.52133,0.45838 1.3613,0.62858 0.57758,0.11703 0.96768,0.13422 2.06715,0.0911 0.74536,-0.0292 1.4551,-0.0762 1.57717,-0.1043 0.20272,-0.0467 0.25671,0.005 0.6226,0.59166 0.53157,0.85286 0.67662,0.86214 1.11482,0.0713 0.17416,-0.31433 0.35361,-0.59659 0.39877,-0.62725 0.0452,-0.0307 0.38597,-0.10019 0.75736,-0.15449 1.72161,-0.25173 3.34303,-1.0668 4.44579,-2.23486 0.24711,-0.26175 0.46618,-0.4759 0.48683,-0.4759 0.10185,0 0.0146,1.39965 -0.12729,2.04105 -0.29877,1.3509 -0.92025,2.42629 -2.0059,3.47096 -0.69075,0.66468 -1.30498,1.07062 -2.36295,1.56166 l -0.78205,0.36297 -0.14652,0.45151 c -0.52217,1.60914 -1.6901,3.4228 -3.12701,4.85586 -2.07742,2.07186 -4.42001,3.27885 -7.20198,3.71072 -1.14891,0.17836 -1.67979,0.20339 -2.92009,0.13768 z m 7.366,-5.30254 c 1.42687,-0.38972 2.55707,-1.62299 2.96657,-3.23709 0.12415,-0.48936 0.05,-0.55011 -0.82776,-0.67814 -1.70157,-0.24821 -3.05835,-1.00899 -4.53942,-2.54537 -0.40575,-0.4209 -0.77335,-0.76527 -0.81689,-0.76527 -0.13377,0 -0.77182,0.92571 -1.19386,1.73211 -1.15346,2.2039 -0.88482,3.87754 0.7972,4.96652 1.08089,0.69979 2.32036,0.88061 3.61416,0.52724 z m 6.35,-18.60583 c 0,-0.0161 0.0572,-0.0767 0.127,-0.13471 0.0732,-0.0608 0.127,-0.069 0.127,-0.0194 0,0.0473 -0.0572,0.1079 -0.127,0.13471 -0.0699,0.0268 -0.127,0.0355 -0.127,0.0194 z m -1.2808,-0.19821 c -0.10532,-0.13428 -0.10232,-0.13728 0.032,-0.032 0.14104,0.1106 0.18589,0.18013 0.1162,0.18013 -0.0176,0 -0.0842,-0.0667 -0.14816,-0.14817 z m 0.43413,-0.63498 c 0,-0.21571 0.0422,-0.41826 0.0937,-0.45012 0.0621,-0.0384 0.0757,-10e-4 0.0404,0.11005 -0.0634,0.19964 0.12425,0.3867 0.3146,0.31366 0.10046,-0.0385 0.12056,-0.008 0.085,0.12732 -0.0383,0.14651 -0.0686,0.15943 -0.17231,0.0734 -0.10229,-0.0849 -0.14787,-0.0743 -0.24366,0.0567 -0.10691,0.1462 -0.11784,0.12477 -0.11784,-0.23103 z m -0.65598,-0.0212 c 9.4e-4,-0.18627 0.0183,-0.2525 0.0385,-0.14718 0.0202,0.10532 0.0195,0.25772 -0.002,0.33866 -0.0212,0.081 -0.0378,-0.005 -0.0368,-0.19148 z m 1.67368,-0.67529 c -0.0668,-0.0805 -0.0732,-0.12905 -0.0171,-0.12905 0.10232,0 0.22162,0.16063 0.1629,0.21935 -0.0213,0.0213 -0.0869,-0.0193 -0.14584,-0.0903 z"
         style="fill:#525252;stroke-width:0.08466667" />
      <path
         id="path4628"
         d="m 146.78374,213.26483 c -1.64666,-0.20228 -3.27397,-0.66674 -4.50546,-1.28592 -0.85843,-0.43161 -2.29273,-1.39276 -2.92427,-1.95962 -0.26789,-0.24045 -0.52234,-0.42451 -0.56545,-0.40903 -0.0431,0.0155 -0.61723,0.5044 -1.27582,1.08648 -0.65859,0.58208 -1.23495,1.07175 -1.2808,1.08814 -0.11304,0.0404 0.0357,-0.29598 0.86003,-1.94461 l 0.70339,-1.40681 -0.7375,-1.10719 c -2.73297,-4.10299 -3.05706,-8.3941 -0.96678,-12.80086 l 0.42168,-0.889 -0.0452,-1.35467 c -0.0639,-1.91435 -0.36909,-2.96097 -1.1184,-3.83522 -0.17153,-0.20013 -0.28494,-0.39063 -0.25201,-0.42333 0.0329,-0.0327 0.65658,-0.0556 1.3859,-0.0508 1.00517,0.007 1.53302,0.0524 2.1815,0.18958 2.06239,0.43633 3.74669,1.22022 5.34861,2.48931 l 0.53141,0.421 0.69625,-0.29647 c 2.59666,-1.10571 5.83339,-2.06325 9.05191,-2.67787 1.2479,-0.23831 3.8159,-0.60614 3.868,-0.55405 0.0235,0.0235 -0.0232,0.38667 -0.10373,0.80699 -0.39697,2.07078 -1.67983,5.57043 -2.10776,5.74997 -0.10496,0.044 -1.21953,0.2732 -2.47683,0.50927 -2.40725,0.45198 -2.75091,0.54263 -2.60612,0.68742 0.0477,0.0477 0.93928,0.28526 1.98138,0.528 1.42855,0.33275 1.89268,0.47188 1.88637,0.56546 -0.005,0.0683 -0.39647,0.65349 -0.87082,1.3005 -0.47435,0.64701 -0.84865,1.21851 -0.83177,1.27 0.063,0.19229 0.58426,0.4604 1.1802,0.60704 0.68887,0.16951 2.26916,0.21187 3.42752,0.0919 l 0.69542,-0.072 0.23591,0.40387 c 0.12975,0.22213 0.33851,0.52125 0.46391,0.66471 0.28664,0.3279 0.42633,0.26149 0.80194,-0.3813 0.40224,-0.68836 0.44907,-0.72254 1.07827,-0.787 1.5553,-0.15935 3.29163,-1.01924 4.45056,-2.20408 0.25453,-0.26022 0.49836,-0.47312 0.54184,-0.47312 0.047,0 0.0576,0.30064 0.0263,0.74083 -0.20043,2.81127 -1.68978,4.89124 -4.41388,6.16421 -0.86137,0.40253 -0.90874,0.44374 -1.06437,0.92618 -0.44048,1.36549 -1.63349,3.30346 -2.82755,4.59318 -1.4995,1.61964 -4.01617,3.10221 -6.21066,3.65869 -1.39196,0.35299 -3.44104,0.51677 -4.63308,0.37033 z m 7.51,-5.11699 c 1.57331,-0.32809 2.9712,-1.73476 3.30489,-3.32564 0.12917,-0.61579 0.0581,-0.69072 -0.71845,-0.75706 -1.58486,-0.13539 -3.083,-0.93493 -4.57192,-2.43998 -0.45401,-0.45893 -0.87787,-0.83442 -0.94192,-0.83442 -0.0641,0 -0.31096,0.28137 -0.5487,0.62527 -0.91914,1.32959 -1.43512,2.77637 -1.34493,3.77109 0.067,0.73935 0.34259,1.27769 0.95494,1.86571 1.02719,0.98635 2.45201,1.38992 3.86609,1.09503 z"
         style="fill:#2e2e2e;stroke-width:0.08466667" />
      <path
         id="path4626"
         d="m 146.69907,213.18017 c -2.82821,-0.34744 -5.20059,-1.39469 -7.30418,-3.22432 -0.63033,-0.54824 -0.45775,-0.60983 -1.92448,0.68675 -0.5588,0.49397 -1.04478,0.89873 -1.07995,0.89947 -0.0352,7.6e-4 0.27991,-0.68556 0.70017,-1.52511 0.659,-1.31646 0.75086,-1.55121 0.66778,-1.70644 -0.053,-0.099 -0.34327,-0.54558 -0.6451,-0.99239 -1.0232,-1.51473 -1.81334,-3.39402 -2.11938,-5.04078 -0.17758,-0.95551 -0.19475,-3.20246 -0.0314,-4.11128 0.18528,-1.03095 0.6545,-2.46733 1.1652,-3.56693 l 0.47725,-1.02759 -0.0474,-1.27991 c -0.0687,-1.85239 -0.40334,-3.00307 -1.11537,-3.83492 -0.37032,-0.43263 -0.33659,-0.45065 0.84372,-0.45065 2.61917,0 5.11197,0.81761 7.24102,2.37495 0.44083,0.32246 0.85947,0.62153 0.93031,0.66461 0.0892,0.0543 0.30868,0.002 0.71397,-0.1713 3.2684,-1.39431 7.48179,-2.53078 11.39157,-3.07263 0.53552,-0.0742 1.10305,-0.15662 1.26118,-0.18311 l 0.28752,-0.0482 -0.0553,0.40382 c -0.0859,0.62667 -0.52068,2.26956 -0.85296,3.22302 -0.37389,1.07283 -1.04455,2.66155 -1.17657,2.78715 -0.0543,0.0517 -1.24082,0.3119 -2.63659,0.57821 -1.39578,0.26631 -2.56736,0.50248 -2.6035,0.52482 -0.11349,0.0701 -0.0716,0.26425 0.0686,0.31806 0.13041,0.05 3.72268,0.8979 3.8043,0.8979 0.11815,0 -0.0375,0.24789 -0.84831,1.35067 -0.48895,0.66505 -0.889,1.24134 -0.889,1.28063 0,0.15872 0.39141,0.41903 0.87979,0.58512 0.82479,0.28049 2.09724,0.38701 3.22222,0.26974 1.36941,-0.14274 1.24966,-0.17822 1.65337,0.48993 0.54259,0.89802 0.75799,0.89199 1.27,-0.0356 l 0.33908,-0.61425 0.52652,-0.055 c 0.74319,-0.0777 1.69017,-0.35572 2.48069,-0.72835 0.72243,-0.34053 1.23481,-0.69526 2.08237,-1.44164 l 0.52811,-0.46507 -0.0571,0.71907 c -0.0818,1.02993 -0.26345,1.71245 -0.68726,2.58174 -0.71598,1.46855 -1.81461,2.50548 -3.53182,3.33345 l -0.98834,0.47655 -0.42899,1.016 c -1.86981,4.42828 -5.64037,7.38551 -10.25252,8.04096 -0.79892,0.11354 -2.59999,0.15377 -3.25914,0.0728 z m 7.64752,-4.98285 c 1.51463,-0.35707 2.62811,-1.38899 3.20058,-2.96615 0.35975,-0.99108 0.24926,-1.16611 -0.79283,-1.25593 -1.51372,-0.13047 -3.2539,-1.10924 -4.61177,-2.59392 -0.33962,-0.37133 -0.68158,-0.67518 -0.75989,-0.6752 -0.19418,-6e-5 -0.92867,1.05561 -1.38941,1.99696 -0.93096,1.90211 -0.79537,3.27772 0.4367,4.43026 0.62871,0.58813 0.97285,0.78373 1.78759,1.01604 0.70199,0.20016 1.41523,0.21622 2.12903,0.0479 z"
         style="fill:#040404;stroke-width:0.08466667" />
    </g>
  </g>
</svg>
